<svg xmlns="http://www.w3.org/2000/svg" viewBox="0 0 512 512">
  <path d="M477 254Q480 252 480 248V-40Q480 -48 472 -48H8Q0 -48 0 -40V248Q0 252 3 254L56 294V343Q56 346 58 348L139 430Q142 432 145 432H416Q424 432 424 424V294ZM56 219V274L21 248ZM120 145 16 231V-23L136 76Q120 104 120 136Q120 138 120 145ZM344 136Q344 179 313.5 209.5Q283 240 240.0 240.0Q197 240 166.5 209.5Q136 179 136 136Q136 126 139.0 113.5Q142 101 147.5 89.0Q153 77 160 70V88Q160 107 173.5 123.0Q187 139 205 143Q192 157 192 176Q192 196 206.0 210.0Q220 224 240.0 224.0Q260 224 274.0 210.0Q288 196 288 176Q288 157 275 143Q293 139 306.5 123.0Q320 107 320 88V70Q330 82 337.0 101.0Q344 120 344 136ZM176 88V54Q188 45 206.5 38.5Q225 32 240 32Q250 32 262.0 35.0Q274 38 285.0 43.0Q296 48 304 54V88Q304 105 292.5 116.5Q281 128 264 128H216Q199 128 187.5 116.5Q176 105 176 88ZM217.5 153.5Q227 144 240.0 144.0Q253 144 262.5 153.5Q272 163 272.0 176.0Q272 189 262.5 198.5Q253 208 240.0 208.0Q227 208 217.5 198.5Q208 189 208.0 176.0Q208 163 217.5 153.5ZM145 63 30 -32H450L335 63Q325 50 309.0 39.5Q293 29 274.5 22.5Q256 16 240 16Q216 16 188.0 30.0Q160 44 145 63ZM344 76 464 -23V231L360 145Q360 138 360 136Q360 104 344 76ZM459 248 424 274V219ZM408 205V416H152V352Q152 345 147.5 340.5Q143 336 136 336H72V205L123 163Q128 182 139.5 199.0Q151 216 166.5 228.5Q182 241 201.5 248.5Q221 256 240 256Q279 256 313.5 229.0Q348 202 357 163ZM85 352H136V404ZM192 376Q184 376 184.0 384.0Q184 392 192 392H368Q376 392 376.0 384.0Q376 376 368 376ZM368 344Q376 344 376.0 336.0Q376 328 368 328H192Q184 328 184.0 336.0Q184 344 192 344ZM368 296Q376 296 376.0 288.0Q376 280 368 280H112Q104 280 104.0 288.0Q104 296 112 296Z" transform="translate(0, 512) scale(1, -1)"/>
</svg>