<svg xmlns="http://www.w3.org/2000/svg" viewBox="0 0 512 512">
  <path d="M340 202Q346 198 346.0 191.5Q346 185 340 181L234 104Q231 102 227 102Q224 102 221 103Q214 107 214 114V269Q214 277 221.0 280.5Q228 284 234 279ZM75.0 373.0Q150 448 256.0 448.0Q362 448 437.0 373.0Q512 298 512.0 192.0Q512 86 437.0 11.0Q362 -64 256.0 -64.0Q150 -64 75.0 11.0Q0 86 0.0 192.0Q0 298 75.0 373.0ZM105.5 41.5Q168 -21 256.0 -21.0Q344 -21 406.5 41.5Q469 104 469.0 192.0Q469 280 406.5 342.5Q344 405 256.0 405.0Q168 405 105.5 342.5Q43 280 43.0 192.0Q43 104 105.5 41.5Z" transform="translate(0, 512) scale(1, -1)"/>
</svg>