<svg xmlns="http://www.w3.org/2000/svg" viewBox="0 0 512 512">
  <path d="M440 384Q457 384 468.5 372.5Q480 361 480 344V136Q480 128 472.0 128.0Q464 128 464 136V272H16V24Q16 14 23.0 7.0Q30 0 40 0H264Q272 0 272.0 -8.0Q272 -16 264 -16H40Q23 -16 11.5 -4.5Q0 7 0 24V344Q0 361 11.5 372.5Q23 384 40 384H80V400Q80 413 89.5 422.5Q99 432 112.0 432.0Q125 432 134.5 422.5Q144 413 144 400V384H208V400Q208 413 217.5 422.5Q227 432 240.0 432.0Q253 432 262.5 422.5Q272 413 272 400V384H336V400Q336 413 345.5 422.5Q355 432 368.0 432.0Q381 432 390.5 422.5Q400 413 400 400V384ZM352 400V352Q352 345 356.5 340.5Q361 336 368.0 336.0Q375 336 379.5 340.5Q384 345 384 352V400Q384 407 379.5 411.5Q375 416 368.0 416.0Q361 416 356.5 411.5Q352 407 352 400ZM224 400V352Q224 345 228.5 340.5Q233 336 240.0 336.0Q247 336 251.5 340.5Q256 345 256 352V400Q256 407 251.5 411.5Q247 416 240.0 416.0Q233 416 228.5 411.5Q224 407 224 400ZM96 400V352Q96 345 100.5 340.5Q105 336 112.0 336.0Q119 336 123.5 340.5Q128 345 128 352V400Q128 407 123.5 411.5Q119 416 112.0 416.0Q105 416 100.5 411.5Q96 407 96 400ZM464 288V344Q464 354 457.0 361.0Q450 368 440 368H400V352Q400 339 390.5 329.5Q381 320 368.0 320.0Q355 320 345.5 329.5Q336 339 336 352V368H272V352Q272 339 262.5 329.5Q253 320 240.0 320.0Q227 320 217.5 329.5Q208 339 208 352V368H144V352Q144 339 134.5 329.5Q125 320 112.0 320.0Q99 320 89.5 329.5Q80 339 80 352V368H40Q30 368 23.0 361.0Q16 354 16 344V288ZM224 216V192Q224 185 219.5 180.5Q215 176 208 176H176Q169 176 164.5 180.5Q160 185 160 192V216Q160 223 164.5 227.5Q169 232 176 232H208Q215 232 219.5 227.5Q224 223 224 216ZM176 192H208V216H176ZM128 216V192Q128 185 123.5 180.5Q119 176 112 176H80Q73 176 68.5 180.5Q64 185 64 192V216Q64 223 68.5 227.5Q73 232 80 232H112Q119 232 123.5 227.5Q128 223 128 216ZM80 192H112V216H80ZM400 176H368Q361 176 356.5 180.5Q352 185 352 192V216Q352 223 356.5 227.5Q361 232 368 232H400Q407 232 411.5 227.5Q416 223 416 216V192Q416 185 411.5 180.5Q407 176 400 176ZM368 216V192H400V216ZM224 144V120Q224 113 219.5 108.5Q215 104 208 104H176Q169 104 164.5 108.5Q160 113 160 120V144Q160 151 164.5 155.5Q169 160 176 160H208Q215 160 219.5 155.5Q224 151 224 144ZM176 120H208V144H176ZM128 144V120Q128 113 123.5 108.5Q119 104 112 104H80Q73 104 68.5 108.5Q64 113 64 120V144Q64 151 68.5 155.5Q73 160 80 160H112Q119 160 123.5 155.5Q128 151 128 144ZM80 120H112V144H80ZM208 88Q215 88 219.5 83.5Q224 79 224 72V48Q224 41 219.5 36.5Q215 32 208 32H176Q169 32 164.5 36.5Q160 41 160 48V72Q160 79 164.5 83.5Q169 88 176 88ZM176 48H208V72H176ZM272 176Q265 176 260.5 180.5Q256 185 256 192V216Q256 223 260.5 227.5Q265 232 272 232H304Q311 232 315.5 227.5Q320 223 320 216V192Q320 185 315.5 180.5Q311 176 304 176ZM272 216V192H304V216ZM256 120V144Q256 151 260.5 155.5Q265 160 272 160H304Q312 160 312.0 152.0Q312 144 304 144H272V120Q280 120 280.0 112.0Q280 104 272 104Q265 104 260.5 108.5Q256 113 256 120ZM112 88Q119 88 123.5 83.5Q128 79 128 72V48Q128 41 123.5 36.5Q119 32 112 32H80Q73 32 68.5 36.5Q64 41 64 48V72Q64 79 68.5 83.5Q73 88 80 88ZM80 48H112V72H80ZM302.5 129.5Q333 160 376.0 160.0Q419 160 449.5 129.5Q480 99 480.0 56.0Q480 13 449.5 -17.5Q419 -48 376.0 -48.0Q333 -48 302.5 -17.5Q272 13 272.0 56.0Q272 99 302.5 129.5ZM314.0 -6.0Q340 -32 376.0 -32.0Q412 -32 438.0 -6.0Q464 20 464.0 56.0Q464 92 438.0 118.0Q412 144 376.0 144.0Q340 144 314.0 118.0Q288 92 288.0 56.0Q288 20 314.0 -6.0ZM422 90Q425 92 428 92Q436 92 436 84Q436 81 434 78L366 10Q363 8 360.0 8.0Q357 8 354 10L320 44Q318 47 318 50Q318 58 326 58Q329 58 332 56L360 27Z" transform="translate(0, 512) scale(1, -1)"/>
</svg>