<svg xmlns="http://www.w3.org/2000/svg" viewBox="0 0 512 512">
  <path d="M512 268 478 188Q475 182 468 182Q466 182 465 183Q455 187 459 196L488 262H460Q450 262 450.0 272.0Q450 282 460 282H503Q508 282 511.0 277.5Q514 273 512 268ZM429 269 398 189Q395 183 389 183Q387 183 385 183Q376 187 379 196L410 276Q414 286 423.5 282.0Q433 278 429 269ZM349 99 388 32Q398 14 393.0 -5.0Q388 -24 371 -34L357 -42Q319 -64 276 -64Q255 -64 234 -58Q169 -41 135 17L101 75Q96 84 105.0 89.0Q114 94 119 85L152 27Q182 -24 239 -39Q274 -48 308 -40L243 73Q237 72 231 73Q220 76 214 86L123 245Q117 255 120 267Q121 272 125 277L60 391Q28 357 22.0 310.5Q16 264 40 222L74 163Q79 155 70.0 150.0Q61 145 56 153L23 212Q-11 270 6.5 335.0Q24 400 82 434L96 442Q113 452 132.5 446.5Q152 441 162 424L201 356Q211 338 206.0 319.0Q201 300 184 290L143 266Q140 265 139.0 261.5Q138 258 140 255L232 96Q233 93 236.5 92.5Q240 92 243 93L284 117Q301 127 320.0 121.5Q339 116 349 99ZM75 404 142 289 174 307Q184 313 187.0 324.5Q190 336 184 346L144 414Q139 424 127.5 427.0Q116 430 106 424L92 416Q83 411 75 404ZM371 22 332 89Q326 99 315.0 102.0Q304 105 294 99L262 81L328 -34Q338 -30 347 -25L361 -17Q371 -11 374.0 0.0Q377 11 371 22ZM305 207Q300 207 297.0 212.0Q294 217 297 222Q323 269 327 275Q334 285 344 282Q355 279 355 267V227Q365 227 365.0 217.0Q365 207 355 207V192Q355 182 345.0 182.0Q335 182 335 192V207ZM335 248Q330 241 323 227H335ZM212 258Q214 265 218.0 270.5Q222 276 228.5 279.0Q235 282 242 282Q254 282 263.0 273.0Q272 264 272 252Q272 251 272 251Q271 244 269 238Q266 233 261 226Q248 207 245 202H265Q275 202 275.0 192.0Q275 182 265 182H225Q219 182 216.5 187.5Q214 193 217 198Q220 202 245 238Q248 242 250 247Q251 249 252 253Q251 262 242 262Q234 262 232 254Q230 244 220.0 246.0Q210 248 212 258ZM81.0 126.5Q84 129 88.0 129.0Q92 129 95.0 126.5Q98 124 98.0 119.5Q98 115 95.0 112.0Q92 109 88.0 109.0Q84 109 81.0 112.0Q78 115 78.0 119.5Q78 124 81.0 126.5Z" transform="translate(0, 512) scale(1, -1)"/>
</svg>