<svg xmlns="http://www.w3.org/2000/svg" viewBox="0 0 512 512">
  <path d="M472 320Q480 320 480 312V248Q480 240 472 240H441Q433 215 416 196V136Q416 128 408 128H344Q336 128 336 136V161L335 169Q339 169 342 170Q343 170 344 170Q352 170 352 162V144H400V199Q400 202 402 204Q421 224 428 250Q429 256 436 256H464V304H436Q429 304 428 310Q421 336 402 356Q400 358 400 361V415Q394 414 388.0 410.0Q382 406 377.0 400.5Q372 395 370 389Q368 384 363 384Q361 384 360 385Q341 392 320 392H240Q200 392 167.5 364.0Q135 336 129 296L117 298Q112 296 106 296Q93 296 84.0 305.5Q75 315 75 328V336H91V328Q91 321 95.5 316.5Q100 312 106 312Q113 312 117 316Q129 354 165.0 381.0Q201 408 240 408H320Q340 408 358 402Q365 414 379.5 423.0Q394 432 408 432Q416 432 416 424V364Q433 345 441 320ZM393.0 321.0Q400 314 400.0 304.0Q400 294 393.0 287.0Q386 280 376.0 280.0Q366 280 359.0 287.0Q352 294 352.0 304.0Q352 314 359.0 321.0Q366 328 376.0 328.0Q386 328 393.0 321.0ZM376.0 312.0Q368 312 368.0 304.0Q368 296 376.0 296.0Q384 296 384.0 304.0Q384 312 376.0 312.0ZM240 360V376H320V360ZM0 168V240Q0 248 8 248H16Q48 248 89.0 261.5Q130 275 155 294Q157 296 160.0 296.0Q163 296 165 294Q190 275 231.0 261.5Q272 248 304 248H312Q320 248 320 240V168Q320 113 285.5 56.0Q251 -1 202 -27L164 -47Q162 -48 160.0 -48.0Q158 -48 156 -47L118 -27Q69 -1 34.5 56.0Q0 113 0 168ZM16 232V168Q16 117 48.0 64.0Q80 11 125 -13L160 -31L195 -13Q240 11 272.0 64.0Q304 117 304 168V232Q293 232 280.5 233.5Q268 235 255.0 238.0Q242 241 229.0 245.5Q216 250 203.5 255.0Q191 260 180.0 266.0Q169 272 160 278Q133 259 91.0 245.5Q49 232 16 232ZM133 2Q91 23 61.5 72.0Q32 121 32 168V209Q32 216 39 217Q65 219 99.5 230.5Q134 242 156 256Q158 257 160.0 257.0Q162 257 164 256Q186 242 220.5 230.5Q255 219 281 217Q288 216 288 209V168Q288 121 258.5 72.0Q229 23 187 2L164 -11Q162 -12 160.0 -12.0Q158 -12 156 -11ZM48 202V168Q48 125 75.0 80.5Q102 36 140 16L160 5L180 16Q195 24 209.0 36.5Q223 49 234.5 64.5Q246 80 254.5 97.0Q263 114 267.5 132.5Q272 151 272 168V202Q256 204 235.0 209.5Q214 215 194.0 223.0Q174 231 160 240Q138 227 105.5 216.0Q73 205 48 202ZM152 200V216H168V200ZM64 168V184H80V168ZM240 168V184H256V168ZM80 96V112H96V96ZM224 96V112H240V96ZM152 32V48H168V32Z" transform="translate(0, 512) scale(1, -1)"/>
</svg>