<svg xmlns="http://www.w3.org/2000/svg" viewBox="0 0 512 512">
  <path d="M413 166Q407 161 400 156L391 168Q397 173 403 178ZM437 188Q433 183 425 176L415 188Q421 194 425 199ZM360 128Q355 124 348 120L340 134Q346 137 352 141ZM387 146Q381 141 374 137L365 150Q371 155 378 159ZM464 402Q504 233 504 184Q504 137 354 49Q338 40 320.0 40.0Q302 40 286 49Q276 55 264 62V-56H40V104H33Q23 104 15.5 111.5Q8 119 8 129Q8 139 16 147L133 256Q138 262 147 263Q159 329 176 402L178 408H214Q270 408 316 439L320 442L324 439Q370 408 426 408H462ZM248 -40V120H271Q280 120 280 129Q280 133 277 135L160 245Q152 253 144 245L27 135Q24 133 24 129Q24 120 33 120H56V-40ZM328 328H312V382Q266 360 216 360Q200 289 191 238L288 147Q296 139 296 129Q296 114 283 107Q296 99 310 91Q310 91 311.0 90.5Q312 90 312 90V312H328V90Q328 90 329.0 90.5Q330 91 330 91Q360 108 384.5 125.0Q409 142 423.5 153.5Q438 165 446.0 173.5Q454 182 456 186Q455 226 424 360Q374 360 328 382ZM346 63Q389 88 421.0 111.5Q453 135 470.5 154.0Q488 173 488 184Q488 228 450 392H426Q368 392 320 422Q272 392 214 392H190Q173 318 163 262Q168 260 171 256L177 251Q186 303 202 370L203 376H214Q269 376 316 402L320 404L324 402Q371 376 426 376H437L438 370Q471 226 472 185V184V183Q467 169 432.0 140.0Q397 111 338 77Q330 72 320.0 72.0Q310 72 302 77Q282 88 264 100V81Q279 71 294 63Q320 48 346 63ZM184 89 168 88V89Q168 95 163.5 99.5Q159 104 153 104H151Q145 104 140.5 99.5Q136 95 136 89Q136 78 146 74L163 69Q184 62 184 39Q184 28 177.0 19.5Q170 11 160 9V-8H144V9Q134 11 127.0 19.5Q120 28 120 39V48H136V39Q136 35 138.0 31.5Q140 28 143.5 26.0Q147 24 151 24H153Q159 24 163.5 28.5Q168 33 168 39Q168 50 158 54L141 59Q120 66 120 89Q120 100 127.0 108.5Q134 117 144 119V136H160V119Q167 117 172.5 113.0Q178 109 181.0 102.5Q184 96 184 89Z" transform="translate(0, 512) scale(1, -1)"/>
</svg>