<svg xmlns="http://www.w3.org/2000/svg" viewBox="0 0 512 512">
  <path d="M315 300Q315 284 307.0 270.5Q299 257 285.5 249.0Q272 241 256 241Q232 241 214.5 258.0Q197 275 197.0 299.5Q197 324 214.5 341.5Q232 359 256.0 359.0Q280 359 297.5 341.5Q315 324 315 300ZM224.0 332.0Q211 319 211.0 300.0Q211 281 224.0 268.0Q237 255 256.0 255.0Q275 255 288.0 268.0Q301 281 301.0 300.0Q301 319 288.0 332.0Q275 345 256.0 345.0Q237 345 224.0 332.0ZM493 -36Q494 -37 494 -39Q494 -46 487 -46H25Q18 -46 18 -39Q18 -37 19 -36L76 113Q77 118 82 118H190Q189 120 188 121Q126 225 126 300Q126 354 164.0 392.0Q202 430 256.0 430.0Q310 430 348.0 392.0Q386 354 386 300Q386 225 324 121L323 119L322 118H430Q435 118 436 113ZM140 300Q140 265 154.0 224.0Q168 183 190.0 146.0Q212 109 227.0 87.5Q242 66 256 48Q270 66 285.0 87.5Q300 109 322.0 146.0Q344 183 358.0 224.0Q372 265 372 300Q372 331 356.5 358.0Q341 385 314.0 400.5Q287 416 256 416Q208 416 174.0 382.0Q140 348 140 300ZM251 33Q223 67 199 104H137L215 3L434 80L425 104H313Q289 67 261 33Q259 30 256.0 30.0Q253 30 251 33ZM215 -12 160 -32H396L345 34ZM87 104 35 -32H119L201 -2L119 104ZM414 -32H477L439 67L359 39Z" transform="translate(0, 512) scale(1, -1)"/>
</svg>