<svg xmlns="http://www.w3.org/2000/svg" viewBox="0 0 512 512">
  <path d="M478 333Q480 331 480 328V8Q480 -2 473.0 -9.0Q466 -16 456 -16H224V-40Q224 -48 216 -48H24Q16 -48 16 -40V0H8Q0 0 0 8V56Q0 64 8 64H16V96H8Q0 96 0 104V152Q0 160 8 160H16V200Q16 208 24 208H65Q45 221 30.5 246.5Q16 272 16 296Q16 336 44.0 366.5Q72 397 112 400V408Q112 418 119.0 425.0Q126 432 136 432H376Q379 432 382 430ZM384 405V344Q384 336 392 336H452ZM58.0 358.0Q32 332 32.0 296.0Q32 260 58.0 234.0Q84 208 120.0 208.0Q156 208 182.0 234.0Q208 260 208.0 296.0Q208 332 182.0 358.0Q156 384 120.0 384.0Q84 384 58.0 358.0ZM192 144H160V112H192ZM176 160H208V192H176ZM208 96H176V64H208ZM160 160V192H128V160ZM112 144V112H144V144ZM80 160H112V192H80ZM128 96V64H160V96ZM96 144H64V112H96ZM112 96H80V64H112ZM32 192V160H64V192ZM16 144V112H48V144ZM64 96H32V64H64ZM16 16H48V48H16ZM64 -32V0H32V-32ZM64 48V16H96V48ZM112 -32V0H80V-32ZM112 48V16H144V48ZM160 -32V0H128V-32ZM160 48V16H192V48ZM208 -32V0H176V-32ZM464 8V320H392Q382 320 375.0 327.0Q368 334 368 344V416H136Q128 416 128 408V400Q143 398 162.0 390.0Q181 382 192 371V384H224V368H195Q207 356 215.5 334.5Q224 313 224 296Q224 272 209.5 246.5Q195 221 175 208H216Q224 208 224 200V152Q224 144 216 144H208V112H216Q224 112 224 104V56Q224 48 216 48H208V16H216Q224 16 224 8V0H456Q464 0 464 8ZM240 384H352V368H240ZM240 352H352V336H240ZM288 304H320V288H288ZM336 304H448V288H336ZM288 272H320V256H288ZM336 272H448V256H336ZM120 304Q133 304 142.5 294.5Q152 285 152 272Q152 262 145.0 253.0Q138 244 128 241V224H112V241Q102 244 95.0 253.0Q88 262 88 272H104Q104 265 108.5 260.5Q113 256 120.0 256.0Q127 256 131.5 260.5Q136 265 136.0 272.0Q136 279 131.5 283.5Q127 288 120 288Q107 288 97.5 297.5Q88 307 88 320Q88 330 95.0 339.0Q102 348 112 351V368H128V351Q138 348 145.0 339.0Q152 330 152 320H136Q136 327 131.5 331.5Q127 336 120.0 336.0Q113 336 108.5 331.5Q104 327 104.0 320.0Q104 313 108.5 308.5Q113 304 120 304ZM335 148 352 131 392 171 403 160 358 114Q355 112 352.0 112.0Q349 112 346 114L324 137ZM427 191Q432 189 432 184V136Q432 110 413 92L358 34Q355 32 352.0 32.0Q349 32 346 34L291 92Q272 110 272 136V184Q272 189 277 191L349 223Q350 224 352.0 224.0Q354 224 355 223ZM416 136V179L352 207L288 179V136Q288 117 302 103L352 52L402 103Q416 117 416 136Z" transform="translate(0, 512) scale(1, -1)"/>
</svg>