<svg xmlns="http://www.w3.org/2000/svg" viewBox="0 0 512 512">
  <path d="M512 192Q512 100 453 29Q414 -19 356 -43Q356 -44 355.5 -44.0Q355 -44 355 -44Q351 -46 346 -48Q343 -49 343 -49Q339 -50 335 -52Q332 -53 330 -53Q325 -54 322 -55Q320 -56 316 -57Q312 -58 310 -58Q307 -59 302.5 -60.0Q298 -61 297 -61Q294 -61 289 -62Q289 -62 286.5 -62.0Q284 -62 283 -63Q280 -63 274 -63Q274 -63 272.5 -63.5Q271 -64 270 -64Q263 -64 256.0 -64.0Q249 -64 242 -64Q241 -64 239.5 -63.5Q238 -63 238 -63Q232 -63 229 -63Q228 -62 225 -62Q224 -62 223 -62Q218 -61 215 -61Q214 -61 209.5 -60.0Q205 -59 202 -58Q200 -58 196 -57Q192 -56 190 -55Q186 -54 182 -53Q180 -53 177 -52Q173 -50 169 -49Q169 -49 166 -48Q160 -46 157 -44Q157 -44 156.5 -44.0Q156 -44 156 -43Q98 -19 59 29Q0 100 0 192Q0 298 75.0 373.0Q150 448 256.0 448.0Q362 448 437.0 373.0Q512 298 512 192ZM360 -23Q404 -2 437 36Q429 67 411.5 92.5Q394 118 369.0 137.0Q344 156 314 166Q314 165 310 164Q310 163 309.5 163.0Q309 163 308 162Q304 160 300 159Q299 158 294 156Q293 156 293 156Q275 149 256.0 149.0Q237 149 219 156Q219 156 218 156Q213 158 212 159Q208 160 204 162Q203 163 202.5 163.5Q202 164 202 164Q198 165 198 166Q153 151 120.0 116.5Q87 82 75 36Q108 -2 152 -23H153Q157 -25 162 -28Q162 -28 163.0 -28.0Q164 -28 164 -29Q168 -30 172 -32Q175 -33 176 -33Q180 -34 183 -36Q185 -36 188 -37Q192 -38 195 -39Q196 -39 200.5 -40.0Q205 -41 206 -42Q209 -42 213.0 -43.0Q217 -44 218 -44Q221 -44 226 -45Q231 -46 231 -46Q234 -46 239 -46Q240 -46 241.5 -46.5Q243 -47 243 -47Q250 -47 256.0 -47.0Q262 -47 269 -47Q269 -47 270.5 -46.5Q272 -46 273 -46Q279 -46 281 -46Q281 -46 286 -45Q291 -44 294 -44Q295 -44 299.0 -43.0Q303 -42 306 -42Q307 -41 312 -40Q315 -39 317 -39Q320 -38 324 -37Q327 -36 329 -36Q332 -34 336 -33Q338 -33 340 -32Q344 -30 348 -29Q348 -28 349.0 -28.0Q350 -28 350 -28Q355 -25 359 -23ZM162 260Q162 209 205 182Q210 178 215 176Q216 175 217 175Q235 167 256.0 167.0Q277 167 295 175Q296 175 296.5 175.5Q297 176 297 176Q302 178 307 182Q350 209 350 260Q350 299 322.5 326.5Q295 354 256.0 354.0Q217 354 189.5 326.5Q162 299 162 260ZM450 53Q495 115 495 192Q495 291 425.0 361.0Q355 431 256.0 431.0Q157 431 87.0 361.0Q17 291 17 192Q17 115 62 53Q77 96 108.5 128.5Q140 161 182 178Q145 211 145 260Q145 306 177.5 338.5Q210 371 256.0 371.0Q302 371 334.5 338.5Q367 306 367 260Q367 211 330 178Q351 170 370.0 157.5Q389 145 404.0 129.0Q419 113 431.0 93.5Q443 74 450 53Z" transform="translate(0, 512) scale(1, -1)"/>
</svg>