<svg xmlns="http://www.w3.org/2000/svg" viewBox="0 0 512 512">
  <path d="M75.0 373.0Q150 448 256.0 448.0Q362 448 437.0 373.0Q512 298 512.0 192.0Q512 86 437.0 11.0Q362 -64 256.0 -64.0Q150 -64 75.0 11.0Q0 86 0.0 192.0Q0 298 75.0 373.0ZM90.0 26.0Q159 -43 256.0 -43.0Q353 -43 422.0 26.0Q491 95 491.0 192.0Q491 289 422.0 358.0Q353 427 256.0 427.0Q159 427 90.0 358.0Q21 289 21.0 192.0Q21 95 90.0 26.0ZM358 201Q363 198 363.0 192.0Q363 186 358 183L208 87Q206 85 203 85Q200 85 198 87Q192 90 192 96V288Q192 294 197.5 297.0Q203 300 208 297ZM213 116 332 192 213 268Z" transform="translate(0, 512) scale(1, -1)"/>
</svg>