<svg xmlns="http://www.w3.org/2000/svg" viewBox="0 0 512 512">
  <path d="M209 447 405 362Q411 360 411 354V149Q411 116 395.5 86.5Q380 57 353 37L217 -60Q206 -68 194 -60L59 37Q41 50 28.0 67.5Q15 85 8.0 106.0Q1 127 1 149V354Q1 360 6 362L202 447Q206 449 209 447ZM394 149V348L206 430L18 348V149Q18 87 69 51L204 -46Q206 -47 207 -46L343 51Q393 87 394 149ZM202 410Q206 412 209 410L371 339Q376 337 376 332V149Q376 96 333 65L211 -23Q206 -26 201 -23L79 65Q35 96 35 149V332Q35 337 40 339ZM323 79Q359 105 359 149V183H326Q315 169 300 157Q294 152 292 150Q269 128 211 83Q206 79 200 83Q137 133 119 150Q117 152 111 157Q97 169 86 183H52V149Q52 105 89 79L206 -5ZM86 236Q86 217 95 201H158L174 238Q177 244 182.5 243.5Q188 243 190 237L207 183L222 217Q224 222 229.5 222.0Q235 222 237 217L248 194L251 198Q253 201 257 201H316Q326 217 325 236Q325 264 310.0 279.0Q295 294 267 294Q231 295 213 263Q211 259 206.0 259.0Q201 259 198 263Q180 295 144 294Q117 294 101.5 279.0Q86 264 86 236ZM163 183H108Q113 178 123 170Q130 164 131 162Q149 146 206 101Q263 146 281 162Q284 166 289 170Q298 178 303 183H261L252 173Q249 170 244.0 170.5Q239 171 238 175L230 192L214 155Q211 149 206 149H205Q199 150 198 155L181 210L171 189Q169 183 163 183ZM359 326 206 393 52 326V201H76Q69 218 69 236Q69 271 89.5 291.0Q110 311 144 311Q182 312 206 282Q230 312 267 311Q302 311 322.0 291.0Q342 271 342 236Q343 218 336 201H359Z" transform="translate(0, 512) scale(1, -1)"/>
</svg>