<svg xmlns="http://www.w3.org/2000/svg" viewBox="0 0 512 512">
  <path d="M240 251Q240 191 225.0 132.5Q210 74 200.0 54.0Q190 34 183 22L177 13H90L97 38Q115 103 115 123Q115 128 115 131Q68 133 34 167Q0 202 0 251Q0 301 35.0 336.0Q70 371 120.0 371.0Q170 371 205.0 336.0Q240 301 240 251ZM154 53Q200 142 200 251Q200 284 176.5 307.5Q153 331 120.0 331.0Q87 331 63.5 307.5Q40 284 40 251Q40 219 63.0 195.5Q86 172 118 171H119Q141 171 149 154Q155 144 155 123Q155 104 142 53ZM512 251Q512 191 497.0 132.5Q482 74 472.0 54.0Q462 34 455 22L449 13H362L369 38Q387 103 387 123Q387 128 387 131Q340 133 306 167Q272 202 272 251Q272 301 307.0 336.0Q342 371 392.0 371.0Q442 371 477.0 336.0Q512 301 512 251ZM426 53Q472 142 472 251Q472 284 448.5 307.5Q425 331 392.0 331.0Q359 331 335.5 307.5Q312 284 312 251Q312 219 335.0 195.5Q358 172 390 171H391Q413 171 421 154Q427 144 427 123Q427 104 414 53Z" transform="translate(0, 512) scale(1, -1)"/>
</svg>