<svg xmlns="http://www.w3.org/2000/svg" viewBox="0 0 512 512">
  <path d="M312 222Q290 237 290 264V365Q290 371 295 373L381 410Q384 412 387 410L473 373Q478 371 478 365V264Q478 237 456 222L389 174Q384 171 379 174ZM307 360V264Q307 246 322 236L384 192L446 236Q461 246 461 264V360L384 393ZM362 245 328 271Q324 273 324.5 278.0Q325 283 329.5 285.0Q334 287 338 284L365 264L429 342Q434 349 440.5 343.5Q447 338 442 332L374 246Q368 240 362 245ZM17 -4Q10 -4 5.0 1.0Q0 6 0 13V141Q0 157 10.5 169.0Q21 181 36 183L87 326Q90 334 96.0 340.5Q102 347 110.0 350.5Q118 354 127 354H256V388Q256 393 261 396L381 447Q384 449 387 447L507 396Q512 393 512 388V264Q512 220 475 194L446 173Q461 160 461 141V13Q461 6 456.0 1.0Q451 -4 444 -4H435V-38Q435 -45 431.5 -51.0Q428 -57 422.5 -60.5Q417 -64 410 -64H358Q348 -64 340.5 -56.5Q333 -49 333 -38V-4H128V-38Q128 -49 120.5 -56.5Q113 -64 102 -64H51Q41 -64 33.5 -56.5Q26 -49 26 -38V-4ZM111 -38V-4H43V-38Q43 -47 51 -47H102Q111 -47 111 -38ZM77 13V30H60V13ZM418 -38V-4H350V-38Q350 -47 358 -47H410Q418 -47 418 -38ZM401 13V30H384V13ZM273 382V264Q273 229 302 208L384 150L466 208Q495 229 495 264V382L384 430ZM401 132H367Q356 132 348.5 124.5Q341 117 341 107Q341 98 350 98H401Q410 98 410 107V124Q410 132 401 132ZM256 303H196V286H256ZM256 320V337H239V320ZM103 320 55 183H307L293 194Q256 220 256 264V269H196Q189 269 184.0 274.0Q179 279 179 286V303Q179 310 184.0 315.0Q189 320 196 320H222V337H127Q109 337 103 320ZM17 141V13H43V30Q43 37 48.0 42.0Q53 47 60 47H77Q84 47 89.0 42.0Q94 37 94 30V13H367V30Q367 37 372.0 42.0Q377 47 384 47H401Q408 47 413.0 42.0Q418 37 418 30V13H444V141Q444 155 431 163L410 148Q427 141 427 124V107Q427 96 419.5 88.5Q412 81 401 81H350Q345 81 340.0 83.0Q335 85 331.5 88.5Q328 92 326.0 96.5Q324 101 324 107Q324 121 333.5 133.0Q343 145 357 148L331 166H43Q32 166 24.5 158.5Q17 151 17 141ZM154 320Q162 320 162.0 311.5Q162 303 154 303H139Q133 303 131 297L99 206Q96 198 88.0 201.0Q80 204 83 212L115 303Q121 320 139 320ZM60 81Q49 81 41.5 88.5Q34 96 34 107V124Q34 134 41.5 141.5Q49 149 60 149H94Q112 149 124.5 136.5Q137 124 137 107Q137 101 134.5 96.5Q132 92 129.0 88.5Q126 85 121.0 83.0Q116 81 111 81ZM51 124V107Q51 98 60 98H111Q119 98 119 107Q119 114 116.0 119.5Q113 125 107.0 128.5Q101 132 94 132H60Q51 132 51 124ZM171 30Q164 30 159.0 35.0Q154 40 154 47V81Q154 88 159.0 93.0Q164 98 171 98H290Q297 98 302.0 93.0Q307 88 307 81V47Q307 40 302.0 35.0Q297 30 290 30ZM171 81V47H290V81Z" transform="translate(0, 512) scale(1, -1)"/>
</svg>