<svg xmlns="http://www.w3.org/2000/svg" viewBox="0 0 512 512">
  <path d="M470 405V64Q470 60 468 58L365 -44Q363 -47 359 -47H317Q308 -47 308.0 -38.5Q308 -30 317 -30H351V30Q351 48 363.5 60.5Q376 73 394 73H453V405Q453 416 445.5 423.5Q438 431 428 431H86Q79 431 73.5 427.5Q68 424 64.5 418.0Q61 412 61 405V243Q61 235 52.5 235.0Q44 235 44 243V405Q44 417 49.5 427.0Q55 437 65.0 442.5Q75 448 86 448H428Q445 448 457.5 435.5Q470 423 470 405ZM394 55Q383 55 375.5 47.5Q368 40 368 30V-18L441 55ZM120 397Q129 397 129.0 388.5Q129 380 120 380H103Q95 380 95.0 388.5Q95 397 103 397ZM411 397Q419 397 419.0 388.5Q419 380 411 380H155Q146 380 146.0 388.5Q146 397 155 397ZM120 346Q129 346 129.0 337.5Q129 329 120 329H103Q95 329 95.0 337.5Q95 346 103 346ZM155 329Q146 329 146.0 337.5Q146 346 155 346H351Q359 346 359.0 337.5Q359 329 351 329ZM120 294Q129 294 129.0 285.5Q129 277 120 277H103Q95 277 95.0 285.5Q95 294 103 294ZM155 277Q146 277 146.0 285.5Q146 294 155 294H291Q300 294 300.0 285.5Q300 277 291 277ZM436 269V149Q436 141 427.5 141.0Q419 141 419 149V269Q419 277 427.5 277.0Q436 277 436 269ZM436 115V98Q436 90 427.5 90.0Q419 90 419 98V115Q419 124 427.5 124.0Q436 124 436 115ZM1 -29Q1 -15 11 -5L93 73L11 150Q1 160 1.0 174.0Q1 188 10.5 198.5Q20 209 34.5 209.0Q49 209 59 200L142 120L225 200Q235 209 249 209Q272 209 280.5 187.5Q289 166 272 150L191 73L272 -5Q287 -19 282.0 -38.0Q277 -57 258.0 -62.5Q239 -68 225 -54L142 25L59 -54Q42 -70 21.5 -61.0Q1 -52 1 -29ZM23 -18Q18 -22 18.0 -29.5Q18 -37 23 -42Q35 -53 47 -42L136 43Q142 49 148 43L237 -42Q249 -53 261 -42Q266 -37 265.5 -29.5Q265 -22 260 -18L173 66Q170 69 170.0 72.5Q170 76 173 79L260 163Q269 171 264.5 181.5Q260 192 249 192Q242 192 237 187L148 102Q142 96 136 102L47 187Q42 192 35 192Q23 192 19.0 181.5Q15 171 23 163L111 79Q113 76 113.0 72.5Q113 69 111 66Z" transform="translate(0, 512) scale(1, -1)"/>
</svg>