<svg xmlns="http://www.w3.org/2000/svg" viewBox="0 0 512 512">
  <path d="M508 221Q513 218 513 213V79Q513 31 474 3L386 -61Q382 -64 376 -64H78Q67 -64 59.5 -56.5Q52 -49 52 -38V214L29 196Q24 192 18 192Q11 192 6.0 197.0Q1 202 1 209V256Q1 265 8 270L69 318V405Q69 412 74.0 417.0Q79 422 86 422H138Q141 422 144.0 421.0Q147 420 149.5 417.5Q152 415 153.5 412.0Q155 409 155 405V384L235 446Q240 450 245 446L472 270Q479 264 479 256V233ZM86 405V331L138 371V405ZM18 209 235 378Q240 382 245 378L375 277Q377 278 380 277L462 241V256L414 293L240 429L66 293L18 256ZM69 -38Q69 -47 78 -47H155V115Q155 126 162.5 133.5Q170 141 180 141H240V213Q240 218 245 221L357 270L240 360L69 228ZM172 -47H308V-18L279 3Q240 31 240 79V124H180Q172 124 172 115ZM348 -47 325 -31V-47ZM496 79V207L376 259L257 207V79Q257 40 289 17L376 -47L464 17Q496 40 496 79ZM373 239Q376 241 380 239L474 198Q479 196 479 190V79Q479 48 454 30L381 -22Q376 -26 371 -22L299 30Q274 48 274 79V190Q274 196 279 198ZM462 185 376 222 291 185V79Q291 57 309 44L376 -5L444 44Q462 57 462 79ZM331 101 358 77 421 171Q423 175 428.0 175.0Q433 175 435.5 170.5Q438 166 435 162L367 59Q364 56 360 56Q360 55 359 55Q356 55 354 58L320 88Q316 92 317.0 96.5Q318 101 322.5 102.5Q327 104 331 101Z" transform="translate(0, 512) scale(1, -1)"/>
</svg>