<svg xmlns="http://www.w3.org/2000/svg" viewBox="0 0 512 512">
  <path d="M132 290 121 355Q120 361 125 363L252 431Q256 433 260 431L387 363Q392 361 391 355L379 290Q370 237 337 195L324 205Q355 244 364 293L374 352L256 415L138 352L148 293Q157 244 188 205L176 195Q142 237 132 290ZM204 362 212 348 177 329 184 290Q193 239 234 208L224 195Q178 230 168 288L160 332Q159 338 164 341ZM344 287Q334 229 287 194L277 207Q319 238 328 290L335 329L300 348L308 362L348 341Q353 338 352 332ZM292 371 284 357 256 372 228 357 220 371 252 388Q256 390 260 388ZM298 325 310 315 254 251Q252 248 248 248Q244 248 242 251L218 283L230 293L248 269ZM248 344H264V328H248ZM248 232H264V216H248ZM503 117Q512 107 512.0 94.5Q512 82 503.0 73.0Q494 64 481 64H324L243 -24Q222 -48 190 -48H184Q176 -48 176 -40V-16H160V0H176V32H160V48H176V64H100Q60 64 34 94L30 99Q0 133 0 178V224Q0 232 8 232H23Q44 232 56 215L67 199L83 176H396Q435 176 464 150ZM22 144Q51 143 69 167L59 182Q40 168 17 168Q18 156 22 144ZM16 216V184Q35 184 50 195L43 206Q36 216 23 216ZM231 -14 302 64H192V-32Q215 -31 231 -14ZM336 80H352V120Q352 128 344.0 128.0Q336 128 336 120ZM481 80Q487 80 491.5 84.5Q496 89 496.0 95.0Q496 101 492 105L484 112H440Q425 112 412 120L420 133Q429 128 440 128H465L454 138Q453 139 452 139Q452 139 451.5 139.5Q451 140 451 141Q451 141 450.5 141.5Q450 142 449 142Q449 142 449.0 142.0Q449 142 448 143H447Q447 144 446.5 144.0Q446 144 446 144Q446 144 446 145Q445 145 444.5 145.0Q444 145 444 146Q443 146 443.0 146.0Q443 146 442 147Q441 147 441.0 147.5Q441 148 441.0 148.0Q441 148 440 148Q440 148 439.0 148.5Q438 149 438.0 149.0Q438 149 437 150Q436 150 436 150Q435 151 434.5 151.0Q434 151 434 152Q433 152 432 152Q431 153 431 153Q430 153 429.5 153.0Q429 153 429 154Q429 154 428 154Q428 154 427.0 154.0Q426 154 426 155Q426 155 425 155Q424 155 424 156H423Q423 156 422 156Q422 156 421 156Q421 156 420.5 156.5Q420 157 420 157Q419 157 419 157Q419 157 418 157Q417 157 417 157Q417 158 416 158Q416 158 415.5 158.0Q415 158 414 158Q412 158 412 159Q412 159 411 159Q411 159 410 159Q410 159 409 159H408Q408 159 407 159Q407 159 406 159Q406 159 405.5 159.5Q405 160 404 160H403Q403 160 402.5 160.0Q402 160 401 160Q403 151 408 144L396 134Q387 145 385 160H84Q64 131 29 128Q34 118 42 110L46 105Q68 80 100 80H320V120Q320 130 327.0 137.0Q334 144 344.0 144.0Q354 144 361.0 137.0Q368 130 368 120V80ZM80 128H112V112H80ZM128 128H160V112H128ZM176 128H208V112H176ZM224 128H256V112H224ZM272 128H304V112H272ZM416 264H432V248H416ZM416 232H432V216H416ZM400 248H416V232H400ZM432 248H448V232H432ZM56 360H72V344H56ZM56 328H72V312H56ZM40 344H56V328H40ZM72 344H88V328H72Z" transform="translate(0, 512) scale(1, -1)"/>
</svg>