<svg xmlns="http://www.w3.org/2000/svg" viewBox="0 0 512 512">
  <path d="M75.0 373.0Q150 448 256.0 448.0Q362 448 437.0 373.0Q512 298 512.0 192.0Q512 86 437.0 11.0Q362 -64 256.0 -64.0Q150 -64 75.0 11.0Q0 86 0.0 192.0Q0 298 75.0 373.0ZM477 102Q493 141 495 183H418Q417 136 405 90ZM17 183Q19 141 35 102L107 90Q95 136 94 183ZM35 282Q19 243 17 201H94Q95 248 107 294ZM265 311V201H401Q400 250 386 297L356 303Q311 310 265 311ZM359 319 380 316Q362 365 331.5 396.0Q301 427 265 430V328Q312 327 359 319ZM247 328V430Q211 427 180.5 396.0Q150 365 132 316L153 319Q200 327 247 328ZM156 303 126 297Q112 250 111 201H247V311Q201 310 156 303ZM111 183Q112 134 126 87L156 81Q201 74 247 73V183ZM153 65 132 68Q150 19 180.5 -12.0Q211 -43 247 -46V56Q200 57 153 65ZM265 56V-46Q301 -43 331.5 -12.0Q362 19 380 68L359 65Q312 57 265 56ZM356 81 386 87Q400 134 401 183H265V73Q311 74 356 81ZM418 201H495Q493 243 477 282L405 294Q417 248 418 201ZM469 300Q424 388 331 419Q380 375 399 313ZM181 419Q88 388 43 300L113 313Q132 375 181 419ZM43 84Q88 -4 181 -35Q132 9 113 71ZM331 -35Q424 -4 469 84L399 71Q380 9 331 -35ZM331 -35Z" transform="translate(0, 512) scale(1, -1)"/>
</svg>