<svg xmlns="http://www.w3.org/2000/svg" viewBox="0 0 512 512">
  <path d="M477 312H504V251Q504 204 475.5 168.0Q447 132 402 120H400H398Q383 124 368 132Q363 112 349 99Q329 78 299 78L331 -26L267 -16L220 -63L208 -23L196 -63L149 -16L85 -26L117 78Q87 78 67 99Q52 114 47.5 134.5Q43 155 50 175Q31 183 19.5 201.0Q8 219 8.0 240.0Q8 261 19.5 279.0Q31 297 50 305Q43 325 47.5 345.5Q52 366 67.0 381.5Q82 397 102.5 401.0Q123 405 143 398Q148 411 158.0 420.5Q168 430 181.0 435.0Q194 440 208 440Q229 440 247.0 428.5Q265 417 273 398Q293 405 313.5 400.5Q334 396 349 381Q373 357 370 324Q384 331 394 342L400 347L406 342Q435 312 477 312ZM188 -33 200 4 188 43Q156 52 143 82Q140 81 135 80L107 -6L146 -1L160 43L176 37L161 -6ZM270 -1 309 -6 281 80Q276 81 273 82Q265 63 247.0 51.5Q229 40 208 40Q208 40 207.0 40.0Q206 40 205 40L228 -33L255 -6L240 37L256 43ZM338 110Q351 122 354 141Q336 153 324 169Q305 139 274.5 121.5Q244 104 208 104Q152 104 112.0 144.0Q72 184 72.0 240.0Q72 296 112.0 336.0Q152 376 208 376Q231 376 253.0 368.5Q275 361 293.0 346.5Q311 332 323 312Q338 312 353 316Q361 348 338 370Q325 383 307.0 386.0Q289 389 273 380L264 376L261 385Q256 402 241.0 413.0Q226 424 208.0 424.0Q190 424 175.0 413.0Q160 402 155 385L152 376L143 380Q127 389 109.0 386.0Q91 383 78.0 370.0Q65 357 62.0 339.0Q59 321 68 305L72 296L63 293Q46 288 35.0 273.0Q24 258 24.0 240.0Q24 222 35.0 207.0Q46 192 63 187L72 184L68 175Q59 159 62.0 141.0Q65 123 78.0 110.0Q91 97 109.0 94.0Q127 91 143 100L152 104L155 95Q160 78 175.0 67.0Q190 56 208.0 56.0Q226 56 241.0 67.0Q256 78 261 95L264 104L273 100Q289 91 307.0 94.0Q325 97 338 110ZM162 275Q167 288 180 293L189 297Q187 300 186 304L184 309L200 315L201 309Q206 295 220 293L236 290Q249 288 254 275Q256 281 256 287Q256 298 250.5 307.5Q245 317 235.5 322.5Q226 328 215 328H201Q184 328 172.0 316.0Q160 304 160 287Q160 281 162 275ZM176 264V256Q176 243 185.5 233.5Q195 224 208.0 224.0Q221 224 230.5 233.5Q240 243 240 256V266Q240 273 233 274L218 277Q208 279 200 284L186 279Q176 275 176 264ZM234 192 221 183 230 173 241 191ZM196 210 194 203 208 194 222 203 220 210Q214 208 208.0 208.0Q202 208 196 210ZM182 192 175 191 186 173 195 183ZM158 188Q136 180 136 157V144Q168 120 208 120Q248 120 280 144V157Q280 180 258 188L234 147L208 173L182 147ZM296 158Q306 170 314 184Q296 215 296 251V312H304Q268 360 208 360Q158 360 123.0 325.0Q88 290 88 240Q88 193 120 159Q121 176 132.5 189.0Q144 202 161 205L178 207L181 216Q166 227 161 245L154 255Q144 269 144 287Q144 311 160.5 327.5Q177 344 201 344H215Q239 344 255.5 327.5Q272 311 272 287Q272 269 262 255L255 245Q250 227 235 216L238 207L255 205Q272 202 284.0 189.0Q296 176 296 158ZM488 251V296H477Q433 296 400 325Q367 296 323 296H312V251Q312 211 336.5 179.0Q361 147 400 136Q439 147 463.5 179.0Q488 211 488 251ZM384 203 458 278 470 266 384 181 346 218 358 230Z" transform="translate(0, 512) scale(1, -1)"/>
</svg>